<svg id="圖層_1" data-name="圖層 1" xmlns="http://www.w3.org/2000/svg" viewBox="0 0 511.81 447.42"><defs><style>.cls-1{fill:#724505;}</style></defs><path class="cls-1" d="M.82,155.79c4.85-46.48,52.74-73.54,95.46-45.39,32.63,21.5,44.53,67.48,26.51,101.17-16.26,30.37-53.74,40.5-83.3,22.68C17.74,221.13,5.39,201.81,1,177.08c-.15-.79,0-1.69-1-2.07V161C1.17,159.42,0,157.45.82,155.79Z"/><path class="cls-1" d="M511.81,243c-2,2.78-1.69,6.21-2.65,9.29-10,32-30.74,53-64.17,58.18-35.05,5.47-64.94-18.1-68-54.55-3.23-38.59,23-74.13,60.4-83,36-8.55,68.62,13.85,73.62,50.47a6,6,0,0,0,.79,1.64v1a7.62,7.62,0,0,0,0,6Z"/><path class="cls-1" d="M64.52,368.51A78.34,78.34,0,0,1,77.4,325.15c18.21-28.41,36-57.08,54.73-85.17,26.52-39.87,64.24-59.89,112-57.59,41.64,2,74.54,21.71,97.66,56.5q28.56,43,55.78,86.87c29.31,47,4.85,107-48.51,119.45-15.42,3.6-30.79,3-45.56-3.12-23.5-9.66-47.66-15.42-73.29-14.18-19.85,1-38.63,6-57,13.43A78.63,78.63,0,0,1,64.52,368.51Z"/><path class="cls-1" d="M124.41,82.66c.77-25.83,10.55-50.72,34.16-68.5,29.76-22.41,68-17.76,93.76,10.7,30.1,33.2,29.62,90.18-1,122.87-32.35,34.49-83.65,30.52-110.43-8.53C129.82,123.09,124.57,105.2,124.41,82.66Z"/><path class="cls-1" d="M424.22,112.51c-1.37,29.41-12.52,53.93-37.41,70.68-37.86,25.47-82.92,10.16-98.26-32.88-14.22-39.92,6.62-88.3,45-104.46,34.76-14.64,72.2,1.76,85.38,37.31A82.65,82.65,0,0,1,424.22,112.51Z"/></svg>